#ident	"@(#)xsol:club.bm	1.1"
#define club_width 11
#define club_height 11
static unsigned char club_bits[] = {
   0x20, 0x00, 0x70, 0x00, 0xf8, 0x00, 0x74, 0x01, 0xae, 0x03, 0xff, 0x07,
   0xae, 0x03, 0x24, 0x01, 0x20, 0x00, 0x20, 0x00, 0x70, 0x00};
