#ident	"@(#)xsol:cursor.bm	1.1"
#define cursor_width 16
#define cursor_height 16
#define cursor_x_hot 2
#define cursor_y_hot 0
static unsigned char cursor_bits[] = {
   0x1c, 0x00, 0x24, 0x00, 0x48, 0x00, 0x90, 0x10, 0x20, 0x29, 0x70, 0x2a,
   0x90, 0x2c, 0x1c, 0x21, 0x64, 0x20, 0x0a, 0x20, 0x32, 0x40, 0x04, 0x40,
   0x18, 0x80, 0x60, 0x40, 0x80, 0x21, 0x00, 0x1e};
