#ident	"@(#)xsol:exit.bm	1.1"
#define exit_width 48
#define exit_height 16
static unsigned char exit_bits[] = {
   0x00, 0x00, 0x00, 0x00, 0x00, 0x00, 0x00, 0x00, 0x00, 0x00, 0x00, 0x00,
   0x00, 0xe0, 0x07, 0x00, 0x00, 0x00, 0x00, 0x20, 0x00, 0x00, 0x00, 0x00,
   0x00, 0x20, 0x00, 0x00, 0x00, 0x00, 0x00, 0x20, 0x00, 0x00, 0x00, 0x00,
   0x00, 0x20, 0x00, 0x00, 0x00, 0x00, 0x00, 0x20, 0x20, 0x92, 0x0f, 0x00,
   0x00, 0xe0, 0x23, 0x12, 0x02, 0x00, 0x00, 0x20, 0x40, 0x11, 0x02, 0x00,
   0x00, 0x20, 0x80, 0x10, 0x02, 0x00, 0x00, 0x20, 0x40, 0x11, 0x02, 0x00,
   0x00, 0x20, 0x20, 0x12, 0x02, 0x00, 0x00, 0xe0, 0x27, 0x12, 0x02, 0x00,
   0x00, 0x00, 0x00, 0x00, 0x00, 0x00, 0x00, 0x00, 0x00, 0x00, 0x00, 0x00};
