#ident	"@(#)xsol:heart.bm	1.1"
#define heart_width 11
#define heart_height 11
static unsigned char heart_bits[] = {
   0x8c, 0xf9, 0xde, 0xfb, 0xff, 0xff, 0xff, 0xff, 0xff, 0xff, 0xff, 0xff,
   0xfe, 0xfb, 0xfc, 0xf9, 0xf8, 0xf8, 0x70, 0xf8, 0x20, 0xf8};
