#ident	"@(#)xsol:spade.bm	1.1"
#define spade_width 11
#define spade_height 11
static unsigned char spade_bits[] = {
   0x20, 0x00, 0x70, 0x00, 0xf8, 0x00, 0xfc, 0x01, 0xfe, 0x03, 0xff, 0x07,
   0xff, 0x07, 0xff, 0x07, 0xae, 0x03, 0x20, 0x00, 0x70, 0x00};
